<svg width="24" height="24" viewBox="0 0 24 24" fill="none" xmlns="http://www.w3.org/2000/svg">
<path fill-rule="evenodd" clip-rule="evenodd" d="M19.9815 18.7109C19.9892 18.7019 20 18.6827 20 18.6509V5.06094C20 5.02914 19.9892 5.00994 19.9815 5.00095L4.0185 5.00095C4.01082 5.00994 4 5.02914 4 5.06094L4 18.6509C4 18.6827 4.01082 18.7019 4.0185 18.7109L19.9815 18.7109ZM22 18.6509C22 19.7371 21.1528 20.7109 19.9957 20.7109L4.00426 20.7109C2.84719 20.7109 2 19.7371 2 18.6509L2 5.06094C2 3.97479 2.84719 3.00095 4.00426 3.00095L19.9957 3.00095C21.1528 3.00095 22 3.97479 22 5.06094L22 18.6509Z" fill="#7C5D00"/>
<path fill-rule="evenodd" clip-rule="evenodd" d="M8.2942 11.2838C8.68545 10.894 9.31862 10.8951 9.70842 11.2864L12.0601 13.6468L14.4117 11.2864C14.8015 10.8951 15.4347 10.894 15.8259 11.2838C16.2172 11.6736 16.2183 12.3067 15.8285 12.698L13.1438 15.3927C12.8554 15.6783 12.466 15.8385 12.0601 15.8385C11.6542 15.8385 11.2647 15.6783 10.9764 15.3927L10.9716 15.388L8.29158 12.698C7.90178 12.3067 7.90296 11.6736 8.2942 11.2838Z" fill="#7C5D00"/>
<path fill-rule="evenodd" clip-rule="evenodd" d="M12 6.99219C12.5523 6.99219 13 7.4399 13 7.99219L13 13.9922C13 14.5445 12.5523 14.9922 12 14.9922C11.4477 14.9922 11 14.5445 11 13.9922L11 7.99219C11 7.4399 11.4477 6.99219 12 6.99219Z" fill="#7C5D00"/>
</svg>
