<svg width="24" height="24" viewBox="0 0 24 24" fill="none" xmlns="http://www.w3.org/2000/svg">
<path d="M20 19.0132C20 19.2637 19.9005 19.5039 19.7234 19.681C19.5463 19.8581 19.306 19.9576 19.0556 19.9576H3.94444C3.69396 19.9576 3.45374 19.8581 3.27662 19.681C3.0995 19.5039 3 19.2637 3 19.0132V9.08706C2.9999 8.94314 3.03269 8.8011 3.09588 8.67179C3.15906 8.54247 3.25096 8.42931 3.36456 8.34095L10.9201 2.46461C11.0859 2.33565 11.29 2.26562 11.5 2.26562C11.71 2.26562 11.9141 2.33565 12.0799 2.46461L19.6354 8.34095C19.749 8.42931 19.8409 8.54247 19.9041 8.67179C19.9673 8.8011 20.0001 8.94314 20 9.08706V19.0132ZM18.1111 18.0687V9.54795L11.5 4.40639L4.88889 9.54795V18.0687H18.1111Z" fill="#7C5D00"/>
</svg>
