<svg width="20" height="18" viewBox="0 0 20 18" fill="none" xmlns="http://www.w3.org/2000/svg">
<path d="M19.75 1.875V5.625C19.75 5.92337 19.6315 6.20952 19.4205 6.4205C19.2095 6.63147 18.9234 6.75 18.625 6.75C18.3266 6.75 18.0405 6.63147 17.8295 6.4205C17.6185 6.20952 17.5 5.92337 17.5 5.625V3H14.875C14.5766 3 14.2905 2.88147 14.0795 2.6705C13.8685 2.45952 13.75 2.17337 13.75 1.875C13.75 1.57663 13.8685 1.29048 14.0795 1.0795C14.2905 0.868526 14.5766 0.75 14.875 0.75H18.625C18.9234 0.75 19.2095 0.868526 19.4205 1.0795C19.6315 1.29048 19.75 1.57663 19.75 1.875ZM5.125 15H2.5V12.375C2.5 12.0766 2.38147 11.7905 2.1705 11.5795C1.95952 11.3685 1.67337 11.25 1.375 11.25C1.07663 11.25 0.790483 11.3685 0.579505 11.5795C0.368526 11.7905 0.25 12.0766 0.25 12.375V16.125C0.25 16.4234 0.368526 16.7095 0.579505 16.9205C0.790483 17.1315 1.07663 17.25 1.375 17.25H5.125C5.42337 17.25 5.70952 17.1315 5.9205 16.9205C6.13147 16.7095 6.25 16.4234 6.25 16.125C6.25 15.8266 6.13147 15.5405 5.9205 15.3295C5.70952 15.1185 5.42337 15 5.125 15ZM18.625 11.25C18.3266 11.25 18.0405 11.3685 17.8295 11.5795C17.6185 11.7905 17.5 12.0766 17.5 12.375V15H14.875C14.5766 15 14.2905 15.1185 14.0795 15.3295C13.8685 15.5405 13.75 15.8266 13.75 16.125C13.75 16.4234 13.8685 16.7095 14.0795 16.9205C14.2905 17.1315 14.5766 17.25 14.875 17.25H18.625C18.9234 17.25 19.2095 17.1315 19.4205 16.9205C19.6315 16.7095 19.75 16.4234 19.75 16.125V12.375C19.75 12.0766 19.6315 11.7905 19.4205 11.5795C19.2095 11.3685 18.9234 11.25 18.625 11.25ZM1.375 6.75C1.67337 6.75 1.95952 6.63147 2.1705 6.4205C2.38147 6.20952 2.5 5.92337 2.5 5.625V3H5.125C5.42337 3 5.70952 2.88147 5.9205 2.6705C6.13147 2.45952 6.25 2.17337 6.25 1.875C6.25 1.57663 6.13147 1.29048 5.9205 1.0795C5.70952 0.868526 5.42337 0.75 5.125 0.75H1.375C1.07663 0.75 0.790483 0.868526 0.579505 1.0795C0.368526 1.29048 0.25 1.57663 0.25 1.875V5.625C0.25 5.92337 0.368526 6.20952 0.579505 6.4205C0.790483 6.63147 1.07663 6.75 1.375 6.75ZM6.25 4.5C5.95163 4.5 5.66548 4.61853 5.4545 4.8295C5.24353 5.04048 5.125 5.32663 5.125 5.625V12.375C5.125 12.6734 5.24353 12.9595 5.4545 13.1705C5.66548 13.3815 5.95163 13.5 6.25 13.5C6.54837 13.5 6.83452 13.3815 7.0455 13.1705C7.25647 12.9595 7.375 12.6734 7.375 12.375V5.625C7.375 5.32663 7.25647 5.04048 7.0455 4.8295C6.83452 4.61853 6.54837 4.5 6.25 4.5ZM14.875 12.375V5.625C14.875 5.32663 14.7565 5.04048 14.5455 4.8295C14.3345 4.61853 14.0484 4.5 13.75 4.5C13.4516 4.5 13.1655 4.61853 12.9545 4.8295C12.7435 5.04048 12.625 5.32663 12.625 5.625V12.375C12.625 12.6734 12.7435 12.9595 12.9545 13.1705C13.1655 13.3815 13.4516 13.5 13.75 13.5C14.0484 13.5 14.3345 13.3815 14.5455 13.1705C14.7565 12.9595 14.875 12.6734 14.875 12.375ZM10 4.5C9.70163 4.5 9.41548 4.61853 9.2045 4.8295C8.99353 5.04048 8.875 5.32663 8.875 5.625V12.375C8.875 12.6734 8.99353 12.9595 9.2045 13.1705C9.41548 13.3815 9.70163 13.5 10 13.5C10.2984 13.5 10.5845 13.3815 10.7955 13.1705C11.0065 12.9595 11.125 12.6734 11.125 12.375V5.625C11.125 5.32663 11.0065 5.04048 10.7955 4.8295C10.5845 4.61853 10.2984 4.5 10 4.5Z" fill="#C29B3E"/>
</svg>
