<svg width="24" height="24" viewBox="0 0 24 24" fill="none" xmlns="http://www.w3.org/2000/svg">
<circle cx="12" cy="12" r="9" stroke="#C29B3E" stroke-width="2"/>
<path d="M12.8386 7.2C13.3799 7.2 13.8559 7.33067 14.2666 7.592C14.6866 7.844 15.0132 8.20333 15.2466 8.67C15.4799 9.13667 15.5966 9.66867 15.5966 10.266C15.5966 10.854 15.4846 11.372 15.2606 11.82C15.0459 12.2587 14.7379 12.5993 14.3366 12.842C13.9352 13.0847 13.4732 13.206 12.9506 13.206H12.0406C11.9939 13.206 11.9706 13.2293 11.9706 13.276V16.832C11.9706 16.8787 11.9519 16.9207 11.9146 16.958C11.8866 16.986 11.8492 17 11.8026 17H9.81457C9.7679 17 9.7259 16.986 9.68857 16.958C9.66057 16.9207 9.64657 16.8787 9.64657 16.832V7.368C9.64657 7.32133 9.66057 7.284 9.68857 7.256C9.7259 7.21867 9.7679 7.2 9.81457 7.2H12.8386ZM12.4326 11.414C12.6846 11.414 12.8852 11.3207 13.0346 11.134C13.1932 10.938 13.2726 10.6673 13.2726 10.322C13.2726 9.958 13.1932 9.678 13.0346 9.482C12.8852 9.286 12.6846 9.188 12.4326 9.188H12.0406C11.9939 9.188 11.9706 9.21133 11.9706 9.258V11.344C11.9706 11.3907 11.9939 11.414 12.0406 11.414H12.4326Z" fill="#C29B3E"/>
</svg>
