<svg width="24" height="24" viewBox="0 0 24 24" fill="none" xmlns="http://www.w3.org/2000/svg">
<path fill-rule="evenodd" clip-rule="evenodd" d="M1 9.64969C1 9.11397 1.43428 8.67969 1.97 8.67969H22.055C22.5907 8.67969 23.025 9.11397 23.025 9.64969C23.025 10.1854 22.5907 10.6197 22.055 10.6197H1.97C1.43428 10.6197 1 10.1854 1 9.64969Z" fill="#7C5D00"/>
<path fill-rule="evenodd" clip-rule="evenodd" d="M9.28563 4.95953C8.82314 4.95951 8.37932 5.14195 8.05056 5.46725C7.72262 5.79175 7.53559 6.23224 7.52985 6.69347C7.52949 6.92341 7.57429 7.15119 7.66174 7.36388C7.74961 7.57762 7.87882 7.77191 8.04194 7.93561C8.20506 8.0993 8.3989 8.22919 8.61233 8.31781C8.82576 8.40643 9.05458 8.45205 9.28568 8.45205H11.0415V6.71535C11.0415 6.24968 10.8565 5.80308 10.5272 5.4738C10.198 5.14452 9.7513 4.95953 9.28563 4.95953ZM9.28568 3.01953C8.31221 3.01949 7.37804 3.40353 6.68605 4.08822C5.99406 4.77293 5.60016 5.70302 5.58991 6.67645L6.55988 6.68666L5.58987 6.68326C5.58816 7.16969 5.6825 7.65168 5.86746 8.10157C6.05243 8.55147 6.32439 8.96042 6.66775 9.30499C7.01111 9.64955 7.41911 9.92294 7.86836 10.1095C8.3176 10.296 8.79925 10.3921 9.28569 10.3921H12.9815V6.71535C12.9815 5.73516 12.5921 4.79511 11.899 4.10201C11.2059 3.40892 10.2659 3.01955 9.28568 3.01953Z" fill="#7C5D00"/>
<path fill-rule="evenodd" clip-rule="evenodd" d="M14.748 8.45062C15.2137 8.45062 15.6603 8.26562 15.9896 7.93633C16.3189 7.60705 16.5038 7.1605 16.5038 6.69482C16.5038 6.22912 16.3189 5.78253 15.9896 5.45327C15.6603 5.12397 15.2137 4.93897 14.748 4.93897C14.2824 4.93897 13.8358 5.12397 13.5065 5.45327C13.1772 5.78253 12.9922 6.22912 12.9922 6.69482V8.45062H14.748ZM17.3614 9.30811C16.6683 10.0012 15.7283 10.3906 14.748 10.3906L11.0522 10.3906V6.69482C11.0522 5.71466 11.4416 4.7746 12.1347 4.08148C12.8278 3.3884 13.7678 2.99897 14.748 2.99897C15.7283 2.99897 16.6683 3.3884 17.3614 4.08148C18.0545 4.7746 18.4438 5.71466 18.4438 6.69482C18.4438 7.67501 18.0545 8.61501 17.3614 9.30811Z" fill="#7C5D00"/>
<path fill-rule="evenodd" clip-rule="evenodd" d="M4.17898 9.64969H3.20898V19.4722C3.20898 19.8944 3.37668 20.2992 3.67518 20.5977C3.97368 20.8962 4.37853 21.0639 4.80066 21.0639H19.2236C19.6458 21.0639 20.0506 20.8962 20.3491 20.5977C20.6476 20.2992 20.8153 19.8944 20.8153 19.4722V8.67969H4.17898V9.64969ZM18.8753 10.6197H5.14898V19.1239H18.8753V10.6197Z" fill="#7C5D00"/>
<path fill-rule="evenodd" clip-rule="evenodd" d="M11.043 20.0962V10.3789H12.983V20.0962H11.043Z" fill="#7C5D00"/>
</svg>
