<svg width="23" height="24" viewBox="0 0 23 24" fill="none" xmlns="http://www.w3.org/2000/svg">
<ellipse cx="11.4998" cy="11.9992" rx="11.426" ry="11.5774" fill="#06C755"/>
<path d="M16.3519 9.70987C16.3519 10.3072 16.2079 10.8672 15.9199 11.3899C15.6426 11.9125 15.1999 12.3339 14.5919 12.6539C13.9946 12.9739 13.2372 13.1339 12.3199 13.1339H10.4479V17.4219H8.2079V6.25387H12.3199C13.1839 6.25387 13.9199 6.40321 14.5279 6.70187C15.1359 7.00054 15.5892 7.41121 15.8879 7.93387C16.1972 8.45654 16.3519 9.04854 16.3519 9.70987ZM12.2239 11.3259C12.8426 11.3259 13.3012 11.1872 13.5999 10.9099C13.8986 10.6219 14.0479 10.2219 14.0479 9.70987C14.0479 8.62187 13.4399 8.07787 12.2239 8.07787H10.4479V11.3259H12.2239Z" fill="white"/>
</svg>
